HIERARCHY
ROOT Hips
{
	OFFSET 0.000000 88.474243 0.000000
	CHANNELS 6 Xposition Yposition Zposition Zrotation Yrotation Xrotation 
	JOINT Hips_Spine
	{
		OFFSET 0.000000 0.000000 0.000000
		CHANNELS 3 Zrotation Yrotation Xrotation
		JOINT Spine
		{
			OFFSET 0.005100 8.711998 -0.691000
			CHANNELS 3 Zrotation Yrotation Xrotation
			JOINT Spine1
			{
				OFFSET -0.009200 8.660301 -1.275000
				CHANNELS 3 Zrotation Yrotation Xrotation
				JOINT Spine2
				{
					OFFSET 0.006300 9.852501 -1.857000
					CHANNELS 3 Zrotation Yrotation Xrotation
					JOINT Spine2_Neck
					{
						OFFSET 0.000000 0.000000 0.000000
						CHANNELS 3 Zrotation Yrotation Xrotation
						JOINT Neck
						{
							OFFSET 0.016300 11.420799 -0.263300
							CHANNELS 3 Zrotation Yrotation Xrotation
							End Site #name: Head
							{
								OFFSET -0.019200 9.262405 2.362500
							}
						}
					}
					JOINT Spine2_LeftShoulder
					{
						OFFSET 0.000000 0.000000 0.000000
						CHANNELS 3 Zrotation Yrotation Xrotation
						JOINT LeftShoulder
						{
							OFFSET 5.616900 6.732201 -0.345700
							CHANNELS 3 Zrotation Yrotation Xrotation
							JOINT LeftArm
							{
								OFFSET 10.664888 -0.183372 -2.440700
								CHANNELS 3 Zrotation Yrotation Xrotation
								JOINT LeftForeArm
								{
									OFFSET 27.459126 0.000000 0.000000
									CHANNELS 3 Zrotation Yrotation Xrotation
									End Site #name: LeftHand
									{
										OFFSET 21.306858 0.000000 0.000000
									}
								}
							}
						}
					}
					JOINT Spine2_RightShoulder
					{
						OFFSET 0.000000 0.000000 0.000000
						CHANNELS 3 Zrotation Yrotation Xrotation
						JOINT RightShoulder
						{
							OFFSET -5.580300 6.737503 -0.344400
							CHANNELS 3 Zrotation Yrotation Xrotation
							JOINT RightArm
							{
								OFFSET -10.679335 -0.188484 -2.383900
								CHANNELS 3 Zrotation Yrotation Xrotation
								JOINT RightForeArm
								{
									OFFSET -27.503529 0.000000 0.000000
									CHANNELS 3 Zrotation Yrotation Xrotation
									End Site #name: RightHand
									{
										OFFSET -21.306808 0.000000 0.000000
									}
								}
							}
						}
					}
				}
			}
		}
	}
	JOINT Hips_LeftUpLeg
	{
		OFFSET 0.000000 0.000000 0.000000
		CHANNELS 3 Zrotation Yrotation Xrotation
		JOINT LeftUpLeg
		{
			OFFSET 6.857700 -6.739601 0.312100
			CHANNELS 3 Zrotation Yrotation Xrotation
			JOINT LeftLeg
			{
				OFFSET -0.367590 -34.731552 -4.572400
				CHANNELS 3 Zrotation Yrotation Xrotation
				End Site #name: LeftFoot
				{
					OFFSET 0.367590 -34.656704 -6.067400
				}
			}
		}
	}
	JOINT Hips_RightUpLeg
	{
		OFFSET 0.000000 0.000000 0.000000
		CHANNELS 3 Zrotation Yrotation Xrotation
		JOINT RightUpLeg
		{
			OFFSET -6.876100 -6.733299 0.301000
			CHANNELS 3 Zrotation Yrotation Xrotation
			JOINT RightLeg
			{
				OFFSET 0.347353 -34.795158 -4.515900
				CHANNELS 3 Zrotation Yrotation Xrotation
				End Site #name: RightFoot
				{
					OFFSET -0.347353 -34.589367 -6.070300
				}
			}
		}
	}
}
MOTION
Frames: 6
Frame Time: 0.041667
0.195321 0.025098 0.016592 0.360965 16.226571 -7.442606 0.000000 0.000000 0.000000 -1.608810 -1.132659 2.163609 -0.193896 -0.840192 1.460503 0.000000 0.000000 0.000000 0.147369 -0.675318 0.090131 1.276524 -0.492643 -1.993082 0.623781 -1.239801 -0.322301 -16.884837 -6.451254 1.561321 -46.182176 -3.008592 23.927107 0.741807 -21.838389 3.189180 -0.166947 -0.556128 1.040872 16.598535 10.900469 5.036857 56.662342 0.684511 1.344872 -0.150788 37.220186 0.916310 0.000000 0.000000 0.000000 -7.072117 11.448568 -5.613530 2.215791 5.702396 23.835523 0.000000 0.000000 0.000000 -2.598213 1.760907 -6.165264 3.119642 -3.786359 -3.795620 
0.736452 -0.044692 0.225506 2.111308 18.112417 -8.381367 0.000000 0.000000 0.000000 -3.306762 -0.757722 1.324088 0.243840 -0.475300 0.907205 0.000000 0.000000 0.000000 -0.029949 -0.453724 -0.620554 1.813837 -1.560316 -1.479344 0.121250 -0.659326 -0.734764 -21.255219 -3.182423 -0.069965 -44.341132 -1.207853 23.752800 -0.763523 -20.165151 0.960811 -0.231607 -0.372604 0.335076 17.999417 9.278928 2.714806 59.363045 4.248043 2.969870 0.097146 34.428966 -0.315412 0.000000 0.000000 -0.000000 -9.861725 10.757617 -4.215054 0.683797 6.357773 23.887583 0.000000 0.000000 0.000000 -6.597740 2.194168 -5.110576 2.848232 -5.688566 -2.330084 
1.115787 -0.113123 0.316920 3.372387 17.753490 -8.517084 0.000000 0.000000 0.000000 -2.891981 -0.833732 1.382442 0.435306 -0.269063 0.163482 0.000000 0.000000 0.000000 0.447912 -0.548756 -1.223437 2.086005 -1.400014 -2.498270 0.084750 -0.575486 -1.129168 -24.886736 -3.119415 -0.728477 -45.027033 5.769097 16.737255 -0.994394 -19.558265 0.950993 0.180393 -0.212581 0.009878 17.453863 9.096884 2.476283 59.372369 6.124097 2.809472 0.290417 31.111306 -0.480877 0.000000 0.000000 -0.000000 -11.715990 10.573511 -3.760249 0.363334 6.616706 23.998290 0.000000 0.000000 0.000000 -8.937915 0.523640 -6.525811 2.534654 -7.468763 1.527631 
1.490810 -0.189086 0.343553 3.752554 16.857858 -8.308714 0.000000 0.000000 0.000000 -2.931034 -0.596956 2.040782 0.674465 -0.344060 0.153297 0.000000 0.000000 0.000000 0.877616 -0.618521 -1.250292 1.920359 -1.566140 -2.051543 0.332476 -0.651305 -1.158321 -26.703870 -3.183116 -1.231665 -44.544635 6.238682 16.085879 -0.900557 -19.246553 0.866439 0.446289 -0.274863 0.026775 16.873655 9.447839 2.438979 59.805622 9.397658 1.624040 0.395506 33.605603 -0.492494 0.000000 0.000000 -0.000000 -12.681639 10.311814 -4.057080 -0.050081 6.402726 24.140582 0.000000 0.000000 0.000000 -9.914304 -0.608415 -8.450037 2.095067 -6.717889 5.567040 
1.911769 -0.246474 0.350608 3.786856 16.377871 -8.015216 0.000000 0.000000 0.000000 -3.455982 -0.559256 2.326747 0.609852 -0.439727 0.367888 0.000000 0.000000 0.000000 0.870903 -0.746788 -1.166480 1.735513 -1.808812 -1.232013 0.356671 -0.760355 -1.000867 -28.909011 -2.764137 -1.358025 -43.140086 4.860732 18.904177 -0.737646 -16.632058 1.428391 0.487617 -0.439907 0.184611 16.316737 9.122866 2.240411 60.700168 11.322652 -0.177199 0.477267 36.691248 -0.483970 0.000000 0.000000 -0.000000 -13.377241 9.895869 -4.580827 -0.474049 5.813436 24.501823 0.000000 0.000000 0.000000 -10.550587 -1.055143 -9.851442 2.129901 -5.512836 8.380939 
2.357161 -0.274010 0.355374 3.649939 16.114394 -7.848688 0.000000 0.000000 0.000000 -4.106981 -0.587808 2.344165 0.352970 -0.539482 0.558222 0.000000 0.000000 0.000000 0.561513 -0.880933 -1.001768 1.676930 -1.980345 -0.672845 0.195546 -0.863687 -0.859066 -30.508481 -1.965796 -1.544873 -41.781376 3.182952 21.251789 -0.577216 -12.905306 2.266566 0.361190 -0.577835 0.314364 16.173445 8.372418 2.074400 61.321840 12.072872 -2.104040 0.555671 36.982079 -0.459699 0.000000 0.000000 -0.000000 -13.903569 9.567279 -5.004944 -0.776915 5.125727 24.696073 0.000000 0.000000 0.000000 -10.938423 -1.070926 -10.563756 2.587715 -3.995442 9.694612 
